<?xml version="1.0" encoding="UTF-8"?>
<svg xmlns="http://www.w3.org/2000/svg" xmlns:xlink="http://www.w3.org/1999/xlink" width="222.63pt" height="175.81pt" viewBox="0 0 222.63 175.81" version="1.1">
<defs>
<clipPath id="clip1">
  <path d="M 81 28 L 140 28 L 140 175.808594 L 81 175.808594 Z M 81 28 "/>
</clipPath>
<clipPath id="clip2">
  <path d="M 114 0 L 222.628906 0 L 222.628906 97 L 114 97 Z M 114 0 "/>
</clipPath>
</defs>
<g id="surface1">
<path style=" stroke:none;fill-rule:nonzero;fill:rgb(19.198608%,17.999268%,49.398804%);fill-opacity:1;" d="M 18.050781 10.433594 L 27.054688 10.433594 L 27.054688 1.5 L 18.050781 1.5 Z M 18.050781 10.433594 "/>
<path style=" stroke:none;fill-rule:nonzero;fill:rgb(19.198608%,17.999268%,49.398804%);fill-opacity:1;" d="M 0 10.433594 L 8.96875 10.433594 L 8.96875 1.5 L 0 1.5 Z M 0 10.433594 "/>
<path style=" stroke:none;fill-rule:nonzero;fill:rgb(19.198608%,17.999268%,49.398804%);fill-opacity:1;" d="M 36.09375 10.433594 L 45.140625 10.433594 L 45.140625 1.5 L 36.09375 1.5 Z M 36.09375 10.433594 "/>
<path style=" stroke:none;fill-rule:nonzero;fill:rgb(19.198608%,17.999268%,49.398804%);fill-opacity:1;" d="M 27.054688 19.472656 L 36.09375 19.472656 L 36.09375 10.433594 L 27.054688 10.433594 Z M 27.054688 19.472656 "/>
<path style=" stroke:none;fill-rule:nonzero;fill:rgb(19.198608%,17.999268%,49.398804%);fill-opacity:1;" d="M 54.125 10.433594 L 63.160156 10.433594 L 63.160156 1.5 L 54.125 1.5 Z M 54.125 10.433594 "/>
<path style=" stroke:none;fill-rule:nonzero;fill:rgb(19.198608%,17.999268%,49.398804%);fill-opacity:1;" d="M 45.140625 19.472656 L 54.140625 19.472656 L 54.140625 10.433594 L 45.140625 10.433594 Z M 45.140625 19.472656 "/>
<path style=" stroke:none;fill-rule:nonzero;fill:rgb(19.198608%,17.999268%,49.398804%);fill-opacity:1;" d="M 63.160156 19.472656 L 72.199219 19.472656 L 72.199219 10.433594 L 63.160156 10.433594 Z M 63.160156 19.472656 "/>
<path style=" stroke:none;fill-rule:nonzero;fill:rgb(19.198608%,17.999268%,49.398804%);fill-opacity:1;" d="M 81.246094 19.472656 L 90.285156 19.472656 L 90.285156 28.546875 L 99.296875 28.546875 L 94.132813 19.472656 L 89.089844 10.433594 L 88.609375 10.433594 L 83.585938 1.5 L 72.210938 1.5 L 72.210938 10.433594 L 81.246094 10.433594 "/>
<path style=" stroke:none;fill-rule:nonzero;fill:rgb(19.198608%,17.999268%,49.398804%);fill-opacity:1;" d="M 54.140625 28.546875 L 63.179688 28.546875 L 63.179688 19.472656 L 54.140625 19.472656 Z M 54.140625 28.546875 "/>
<path style=" stroke:none;fill-rule:nonzero;fill:rgb(19.198608%,17.999268%,49.398804%);fill-opacity:1;" d="M 63.160156 37.585938 L 72.199219 37.585938 L 72.199219 28.546875 L 63.160156 28.546875 Z M 63.160156 37.585938 "/>
<path style=" stroke:none;fill-rule:nonzero;fill:rgb(19.198608%,17.999268%,49.398804%);fill-opacity:1;" d="M 54.140625 46.589844 L 63.179688 46.589844 L 63.179688 37.585938 L 54.140625 37.585938 Z M 54.140625 46.589844 "/>
<path style=" stroke:none;fill-rule:nonzero;fill:rgb(19.198608%,17.999268%,49.398804%);fill-opacity:1;" d="M 81.246094 19.472656 L 72.199219 19.472656 L 72.199219 28.546875 L 81.246094 28.546875 Z M 81.246094 37.585938 L 90.285156 37.585938 L 90.285156 28.546875 L 81.246094 28.546875 Z M 81.246094 37.585938 "/>
<path style=" stroke:none;fill-rule:nonzero;fill:rgb(19.198608%,17.999268%,49.398804%);fill-opacity:1;" d="M 72.203125 46.589844 L 81.25 46.589844 L 81.25 37.585938 L 72.203125 37.585938 Z M 72.203125 46.589844 "/>
<path style=" stroke:none;fill-rule:nonzero;fill:rgb(19.198608%,17.999268%,49.398804%);fill-opacity:1;" d="M 36.09375 46.589844 L 45.140625 46.589844 L 45.140625 37.585938 L 36.09375 37.585938 Z M 36.09375 46.589844 "/>
<path style=" stroke:none;fill-rule:nonzero;fill:rgb(19.198608%,17.999268%,49.398804%);fill-opacity:1;" d="M 63.160156 55.589844 L 72.199219 55.589844 L 72.199219 46.589844 L 63.160156 46.589844 Z M 63.160156 55.589844 "/>
<path style=" stroke:none;fill-rule:nonzero;fill:rgb(19.198608%,17.999268%,49.398804%);fill-opacity:1;" d="M 81.246094 55.589844 L 90.25 55.589844 L 90.25 46.589844 L 81.246094 46.589844 Z M 81.246094 55.589844 "/>
<path style=" stroke:none;fill-rule:nonzero;fill:rgb(19.198608%,17.999268%,49.398804%);fill-opacity:1;" d="M 45.140625 55.589844 L 54.140625 55.589844 L 54.140625 46.589844 L 45.140625 46.589844 Z M 45.140625 55.589844 "/>
<path style=" stroke:none;fill-rule:nonzero;fill:rgb(19.198608%,17.999268%,49.398804%);fill-opacity:1;" d="M 72.203125 64.628906 L 81.25 64.628906 L 81.25 55.589844 L 72.203125 55.589844 Z M 72.203125 64.628906 "/>
<path style=" stroke:none;fill-rule:nonzero;fill:rgb(19.198608%,17.999268%,49.398804%);fill-opacity:1;" d="M 90.25 64.628906 L 81.246094 64.628906 L 81.246094 73.703125 L 72.210938 73.703125 L 72.210938 82.707031 L 81.246094 82.707031 L 81.246094 91.675781 L 90.285156 91.675781 L 90.285156 82.707031 L 81.246094 82.707031 L 81.246094 73.703125 L 90.285156 73.703125 L 90.285156 64.628906 L 99.289063 64.628906 L 99.289063 55.589844 L 90.25 55.589844 "/>
<path style=" stroke:none;fill-rule:nonzero;fill:rgb(19.198608%,17.999268%,49.398804%);fill-opacity:1;" d="M 63.160156 73.71875 L 72.199219 73.71875 L 72.199219 64.628906 L 63.160156 64.628906 Z M 63.160156 73.71875 "/>
<path style=" stroke:none;fill-rule:nonzero;fill:rgb(19.198608%,17.999268%,49.398804%);fill-opacity:1;" d="M 54.140625 82.707031 L 63.179688 82.707031 L 63.179688 73.703125 L 54.140625 73.703125 Z M 54.140625 82.707031 "/>
<path style=" stroke:none;fill-rule:nonzero;fill:rgb(19.198608%,17.999268%,49.398804%);fill-opacity:1;" d="M 63.160156 91.675781 L 72.199219 91.675781 L 72.199219 82.707031 L 63.160156 82.707031 Z M 63.160156 91.675781 "/>
<path style=" stroke:none;fill-rule:nonzero;fill:rgb(19.198608%,17.999268%,49.398804%);fill-opacity:1;" d="M 72.203125 100.78125 L 81.25 100.78125 L 81.25 91.675781 L 72.203125 91.675781 Z M 72.203125 100.78125 "/>
<g clip-path="url(#clip1)" clip-rule="nonzero">
<path style=" stroke:none;fill-rule:nonzero;fill:rgb(19.198608%,17.999268%,49.398804%);fill-opacity:1;" d="M 134.394531 91.675781 L 129.300781 82.707031 L 124.316406 73.703125 L 119.277344 64.628906 L 114.222656 55.589844 L 109.199219 46.589844 L 104.183594 37.585938 L 99.289063 28.546875 L 99.289063 37.585938 L 90.285156 37.585938 L 90.285156 46.589844 L 99.289063 46.589844 L 99.289063 55.589844 L 108.292969 55.589844 L 108.292969 64.628906 L 99.289063 64.628906 L 99.289063 73.703125 L 90.285156 73.703125 L 90.285156 82.707031 L 99.289063 82.707031 L 99.289063 91.675781 L 90.285156 91.675781 L 90.285156 100.78125 L 99.289063 100.78125 L 99.289063 109.785156 L 90.285156 109.785156 L 90.285156 118.753906 L 99.289063 118.753906 L 99.289063 127.828125 L 90.285156 127.828125 L 90.285156 136.898438 L 81.238281 136.898438 L 81.238281 145.902344 L 90.285156 145.902344 L 90.285156 154.941406 L 81.238281 154.941406 L 81.238281 163.945313 L 87.816406 175.808594 L 95.949219 163.945313 L 102.175781 154.941406 L 108.363281 145.902344 L 114.585938 136.898438 L 120.742188 127.828125 L 126.996094 118.753906 L 133.253906 109.785156 L 139.414063 100.78125 "/>
</g>
<path style=" stroke:none;fill-rule:nonzero;fill:rgb(19.198608%,17.999268%,49.398804%);fill-opacity:1;" d="M 63.160156 109.785156 L 72.199219 109.785156 L 72.199219 100.78125 L 63.160156 100.78125 Z M 63.160156 109.785156 "/>
<path style=" stroke:none;fill-rule:nonzero;fill:rgb(19.198608%,17.999268%,49.398804%);fill-opacity:1;" d="M 81.246094 109.785156 L 90.285156 109.785156 L 90.285156 100.78125 L 81.246094 100.78125 Z M 81.246094 109.785156 "/>
<path style=" stroke:none;fill-rule:nonzero;fill:rgb(19.198608%,17.999268%,49.398804%);fill-opacity:1;" d="M 63.160156 127.828125 L 72.199219 127.828125 L 72.199219 118.753906 L 63.160156 118.753906 Z M 63.160156 127.828125 "/>
<path style=" stroke:none;fill-rule:nonzero;fill:rgb(19.198608%,17.999268%,49.398804%);fill-opacity:1;" d="M 72.203125 118.753906 L 81.25 118.753906 L 81.25 109.785156 L 72.203125 109.785156 Z M 72.203125 118.753906 "/>
<path style=" stroke:none;fill-rule:nonzero;fill:rgb(19.198608%,17.999268%,49.398804%);fill-opacity:1;" d="M 81.246094 127.828125 L 90.285156 127.828125 L 90.285156 118.753906 L 81.246094 118.753906 Z M 81.246094 127.828125 "/>
<g clip-path="url(#clip2)" clip-rule="nonzero">
<path style=" stroke:none;fill-rule:nonzero;fill:rgb(87.098694%,11.399841%,10.598755%);fill-opacity:1;" d="M 187.605469 6.980469 L 192.4375 0 L 220.511719 0 C 222.988281 0 223.671875 3.140625 220.511719 4.710938 C 201.5625 14.132813 189.558594 28.300781 182.332031 38.28125 L 142.621094 96.070313 L 134.527344 81.660156 L 177.429688 19.28125 L 177.394531 15.914063 L 174.34375 16.785156 L 132.371094 77.75 L 124.34375 63.234375 L 154.554688 19.28125 L 154.519531 15.914063 L 151.503906 16.785156 L 122.179688 59.359375 L 114.128906 44.914063 L 137.597656 10.714844 C 141.363281 5.234375 147.890625 1.5 154.171875 1.5 C 161.761719 1.5 164.292969 6.980469 164.292969 6.980469 C 167.957031 3.613281 172.773438 1.5 177.5 1.5 C 185.125 1.5 187.605469 6.980469 187.605469 6.980469 "/>
</g>
<path style=" stroke:none;fill-rule:nonzero;fill:rgb(100%,100%,100%);fill-opacity:1;" d="M 99.289063 64.628906 L 108.292969 64.628906 L 108.292969 55.589844 L 99.289063 55.589844 Z M 99.289063 64.628906 "/>
<path style=" stroke:none;fill-rule:nonzero;fill:rgb(100%,100%,100%);fill-opacity:1;" d="M 72.203125 91.675781 L 81.25 91.675781 L 81.25 82.707031 L 72.203125 82.707031 Z M 72.203125 91.675781 "/>
<path style=" stroke:none;fill-rule:nonzero;fill:rgb(100%,100%,100%);fill-opacity:1;" d="M 90.285156 91.675781 L 99.289063 91.675781 L 99.289063 82.707031 L 90.285156 82.707031 Z M 90.285156 91.675781 "/>
<path style=" stroke:none;fill-rule:nonzero;fill:rgb(100%,100%,100%);fill-opacity:1;" d="M 81.246094 100.78125 L 90.285156 100.78125 L 90.285156 91.675781 L 81.246094 91.675781 Z M 81.246094 100.78125 "/>
<path style=" stroke:none;fill-rule:nonzero;fill:rgb(100%,100%,100%);fill-opacity:1;" d="M 90.285156 109.785156 L 99.289063 109.785156 L 99.289063 100.78125 L 90.285156 100.78125 Z M 90.285156 109.785156 "/>
<path style=" stroke:none;fill-rule:nonzero;fill:rgb(100%,100%,100%);fill-opacity:1;" d="M 90.285156 127.828125 L 99.289063 127.828125 L 99.289063 118.753906 L 90.285156 118.753906 Z M 90.285156 127.828125 "/>
<path style=" stroke:none;fill-rule:nonzero;fill:rgb(100%,100%,100%);fill-opacity:1;" d="M 63.160156 28.546875 L 72.199219 28.546875 L 72.199219 19.472656 L 63.160156 19.472656 Z M 63.160156 28.546875 "/>
<path style=" stroke:none;fill-rule:nonzero;fill:rgb(100%,100%,100%);fill-opacity:1;" d="M 72.203125 19.472656 L 81.25 19.472656 L 81.25 10.433594 L 72.203125 10.433594 Z M 72.203125 19.472656 "/>
<path style=" stroke:none;fill-rule:nonzero;fill:rgb(100%,100%,100%);fill-opacity:1;" d="M 81.246094 28.546875 L 90.285156 28.546875 L 90.285156 19.472656 L 81.246094 19.472656 Z M 81.246094 28.546875 "/>
<path style=" stroke:none;fill-rule:nonzero;fill:rgb(98.399353%,90.19928%,0%);fill-opacity:1;" d="M 54.125 19.472656 L 63.160156 19.472656 L 63.160156 10.433594 L 54.125 10.433594 Z M 54.125 19.472656 "/>
<path style=" stroke:none;fill-rule:nonzero;fill:rgb(98.399353%,90.19928%,0%);fill-opacity:1;" d="M 63.160156 46.589844 L 72.199219 46.589844 L 72.199219 37.585938 L 63.160156 37.585938 Z M 63.160156 46.589844 "/>
<path style=" stroke:none;fill-rule:nonzero;fill:rgb(98.399353%,90.19928%,0%);fill-opacity:1;" d="M 72.203125 37.585938 L 81.25 37.585938 L 81.25 28.546875 L 72.203125 28.546875 Z M 72.203125 37.585938 "/>
<path style=" stroke:none;fill-rule:nonzero;fill:rgb(98.399353%,90.19928%,0%);fill-opacity:1;" d="M 81.246094 46.589844 L 90.285156 46.589844 L 90.285156 37.585938 L 81.246094 37.585938 Z M 81.246094 46.589844 "/>
<path style=" stroke:none;fill-rule:nonzero;fill:rgb(98.399353%,90.19928%,0%);fill-opacity:1;" d="M 90.25 55.589844 L 99.289063 55.589844 L 99.289063 46.589844 L 90.25 46.589844 Z M 90.25 55.589844 "/>
<path style=" stroke:none;fill-rule:nonzero;fill:rgb(98.399353%,90.19928%,0%);fill-opacity:1;" d="M 81.246094 64.628906 L 90.25 64.628906 L 90.25 55.589844 L 81.246094 55.589844 Z M 81.246094 64.628906 "/>
<path style=" stroke:none;fill-rule:nonzero;fill:rgb(98.399353%,90.19928%,0%);fill-opacity:1;" d="M 72.203125 73.703125 L 81.25 73.703125 L 81.25 64.613281 L 72.203125 64.613281 Z M 72.203125 73.703125 "/>
<path style=" stroke:none;fill-rule:nonzero;fill:rgb(98.399353%,90.19928%,0%);fill-opacity:1;" d="M 90.285156 73.703125 L 99.289063 73.703125 L 99.289063 64.613281 L 90.285156 64.613281 Z M 90.285156 73.703125 "/>
<path style=" stroke:none;fill-rule:nonzero;fill:rgb(98.399353%,90.19928%,0%);fill-opacity:1;" d="M 63.160156 82.707031 L 72.199219 82.707031 L 72.199219 73.703125 L 63.160156 73.703125 Z M 63.160156 82.707031 "/>
<path style=" stroke:none;fill-rule:nonzero;fill:rgb(98.399353%,90.19928%,0%);fill-opacity:1;" d="M 81.246094 82.707031 L 90.285156 82.707031 L 90.285156 73.703125 L 81.246094 73.703125 Z M 81.246094 82.707031 "/>
<path style=" stroke:none;fill-rule:nonzero;fill:rgb(98.399353%,90.19928%,0%);fill-opacity:1;" d="M 72.203125 109.785156 L 81.25 109.785156 L 81.25 100.78125 L 72.203125 100.78125 Z M 72.203125 109.785156 "/>
<path style=" stroke:none;fill-rule:nonzero;fill:rgb(98.399353%,90.19928%,0%);fill-opacity:1;" d="M 81.246094 118.753906 L 90.285156 118.753906 L 90.285156 109.785156 L 81.246094 109.785156 Z M 81.246094 118.753906 "/>
</g>
</svg>
